#!OML:ASF I:\Actors\actors\Patient Classification 2\Patient 1\Session 1\actor1.ASF
:FULLY-SPECIFIED
:DEGREES

527
root -0.662909 18.1539 5.60197 1.63444 -2.73005 -2.89722
lowerback 3.4374 1.11609 0.979645
upperback -2.27506 1.55832 0.390245
thorax -4.25798 0.751827 -0.256557
lowerneck -11.7018 -2.95651 -1.2768
upperneck 20.0463 -4.63566 3.66236
head 8.26504 -1.93284 0.942464
rclavicle -9.75908e-015 -5.76476e-015
rhumerus -52.2459 -8.46792 -84.0477
rradius 46.5416
rwrist 7.33878
rhand -2.90866 -42.053
rfingers 7.12502
rthumb 22.8016 -70.7253
lclavicle -9.75908e-015 -5.76476e-015
lhumerus -42.0911 -0.242954 89.6553
lradius 40.4369
lwrist 0.094899
lhand -7.46679 -23.6865
lfingers 7.12502
lthumb 18.4218 5.46123
rfemur 10.0852 5.4275 17.417
rtibia -8.0799
rfoot -13.709 -14.2436
rtoes 3.16839
lfemur 13.6984 -8.52257 -11.9155
ltibia -11.6436
lfoot -7.55869 19.2207
ltoes -12.3407
528
root -0.66436 18.1529 5.60587 1.61562 -2.68986 -2.90896
lowerback 3.3728 1.09671 1.00956
upperback -2.26889 1.53296 0.38866
thorax -4.21439 0.738619 -0.271676
lowerneck -11.6905 -2.96143 -1.32796
upperneck 20.1166 -4.6609 3.77967
head 8.29156 -1.93612 0.987341
rclavicle -9.31803e-016 -4.96962e-015
rhumerus -52.1823 -8.42596 -84.0345
rradius 46.5088
rwrist 7.34443
rhand -2.90208 -42.1988
rfingers 7.12502
rthumb 22.8079 -70.8703
lclavicle -9.31803e-016 -4.96962e-015
lhumerus -42.0468 -0.0505041 89.5088
lradius 40.0238
lwrist -0.327191
lhand -7.38771 -23.6231
lfingers 7.12502
lthumb 18.4979 5.51736
rfemur 10.121 5.38724 17.4384
rtibia -8.06791
rfoot -13.7618 -14.2293
rtoes 3.17646
lfemur 13.7327 -8.57895 -11.9075
ltibia -11.6565
lfoot -7.53357 19.2502
ltoes -12.4919
529
root -0.665539 18.1522 5.6102 1.61238 -2.63597 -2.91569
lowerback 3.27942 1.06769 1.0512
upperback -2.25961 1.49481 0.386813
thorax -4.15112 0.718859 -0.292155
lowerneck -11.6361 -2.96283 -1.41922
upperneck 20.1429 -4.67649 3.92112
head 8.29679 -1.93675 1.04869
rclavicle 1.81453e-014 1.43125e-014
rhumerus -52.0809 -8.40054 -84.0243
rradius 46.429
rwrist 7.38015
rhand -2.98799 -42.3093
rfingers 7.12502
rthumb 22.7255 -70.991
lclavicle 1.81453e-014 1.43125e-014
lhumerus -41.9706 0.236089 89.3227
lradius 39.5362
lwrist -0.832489
lhand -7.31716 -23.6395
lfingers 7.12502
lthumb 18.5658 5.49452
rfemur 10.1309 5.33323 17.45
rtibia -8.02638
rfoot -13.7985 -14.2023
rtoes 3.15493
lfemur 13.7522 -8.59606 -11.898
ltibia -11.6929
lfoot -7.4732 19.2397
ltoes -12.7633
530
root -0.667033 18.1521 5.61378 1.59866 -2.59324 -2.9085
lowerback 3.20607 1.04464 1.06617
upperback -2.2494 1.46371 0.390776
thorax -4.09905 0.703401 -0.292704
lowerneck -11.6056 -2.96069 -1.49079
upperneck 20.1914 -4.67746 3.99503
head 8.31111 -1.93501 1.08552
rclavicle -1.20824e-014 0
rhumerus -51.9647 -8.36244 -84.015
rradius 46.3276
rwrist 7.37964
rhand -3.09377 -42.3515
rfingers 7.12502
rthumb 22.624 -71.0456
lclavicle -1.20824e-014 0
lhumerus -41.9232 0.51646 89.1552
lradius 39.0884
lwrist -1.37138
lhand -7.26164 -23.6353
lfingers 7.12502
lthumb 18.6192 5.49364
rfemur 10.153 5.29089 17.4456
rtibia -7.99892
rfoot -13.823 -14.1532
rtoes 3.28099
lfemur 13.773 -8.56503 -11.8973
ltibia -11.7239
lfoot -7.38041 19.1946
ltoes -13.0903
531
root -0.668843 18.1524 5.61668 1.59156 -2.55936 -2.92026
lowerback 3.15021 1.03447 1.07977
upperback -2.248 1.45046 0.404254
thorax -4.06611 0.696851 -0.284387
lowerneck -11.644 -2.95655 -1.47671
upperneck 20.2899 -4.67063 3.95633
head 8.3497 -1.93251 1.07041
rclavicle -4.81432e-015 -6.16232e-015
rhumerus -51.8757 -8.34951 -83.9867
rradius 46.2325
rwrist 7.3779
rhand -3.15378 -42.2535
rfingers 7.12502
rthumb 22.5664 -70.9546
lclavicle -4.81432e-015 -6.16232e-015
lhumerus -41.9062 0.753243 89.0161
lradius 38.6954
lwrist -1.88452
lhand -7.07962 -23.6218
lfingers 7.12502
lthumb 18.7942 5.49021
rfemur 10.1757 5.25744 17.4605
rtibia -7.99308
rfoot -13.8493 -14.1177
rtoes 3.40353
lfemur 13.7838 -8.52732 -11.8711
ltibia -11.7371
lfoot -7.33346 19.137
ltoes -13.1164
532
root -0.669832 18.1522 5.61962 1.5919 -2.50907 -2.91552
lowerback 3.09065 1.02548 1.10773
upperback -2.25036 1.43861 0.395782
thorax -4.03406 0.690253 -0.306793
lowerneck -11.6627 -2.94909 -1.36215
upperneck 20.3468 -4.65715 3.82333
head 8.36578 -1.92954 1.00812
rclavicle 6.88913e-015 1.98785e-016
rhumerus -51.8371 -8.43546 -83.9324
rradius 46.1626
rwrist 7.50117
rhand -3.11001 -41.9956
rfingers 7.12502
rthumb 22.6084 -70.6916
lclavicle 6.88913e-015 1.98785e-016
lhumerus -41.8719 0.940505 88.8776
lradius 38.2877
lwrist -2.31897
lhand -6.81804 -23.5933
lfingers 7.12502
lthumb 19.0458 5.49424
rfemur 10.1819 5.20742 17.4554
rtibia -7.96494
rfoot -13.8772 -14.1011
rtoes 3.47969
lfemur 13.7873 -8.49862 -11.8658
ltibia -11.7519
lfoot -7.31382 19.0635
ltoes -13.2725
533
root -0.669888 18.1516 5.62184 1.60003 -2.46032 -2.89301
lowerback 3.02773 1.01319 1.14335
upperback -2.25881 1.42225 0.374419
thorax -4.00599 0.680964 -0.346496
lowerneck -11.6203 -2.94223 -1.30932
upperneck 20.3532 -4.64945 3.78053
head 8.35759 -1.92666 0.986486
rclavicle 9.77151e-015 7.55382e-015
rhumerus -51.8423 -8.50863 -83.8914
rradius 46.127
rwrist 7.62889
rhand -3.01328 -41.8584
rfingers 7.12502
rthumb 22.7012 -70.543
lclavicle 9.77151e-015 7.55382e-015
lhumerus -41.828 1.11418 88.7508
lradius 37.8602
lwrist -2.68929
lhand -6.69589 -23.4493
lfingers 7.12502
lthumb 19.1633 5.62655
rfemur 10.1723 5.15965 17.4238
rtibia -7.93796
rfoot -13.8929 -14.0812
rtoes 3.51838
lfemur 13.7771 -8.48323 -11.8839
ltibia -11.7597
lfoot -7.28124 19.0128
ltoes -13.4574
534
root -0.67008 18.1518 5.6241 1.61818 -2.44472 -2.90337
lowerback 2.95748 1.00513 1.18134
upperback -2.28164 1.41268 0.381493
thorax -3.9893 0.675305 -0.358714
lowerneck -11.5337 -2.93932 -1.33539
upperneck 20.3436 -4.63929 3.77798
head 8.33871 -1.9255 0.99232
rclavicle 1.18401e-014 6.16232e-015
rhumerus -51.8594 -8.48816 -83.8595
rradius 46.0707
rwrist 7.66549
rhand -3.028 -41.8528
rfingers 7.12502
rthumb 22.6871 -70.5392
lclavicle 1.18401e-014 6.16232e-015
lhumerus -41.8679 1.30046 88.6628
lradius 37.5151
lwrist -3.01732
lhand -6.73726 -23.3174
lfingers 7.12502
lthumb 19.1235 5.76247
rfemur 10.1692 5.1458 17.4215
rtibia -7.95875
rfoot -13.9182 -14.056
rtoes 3.66599
lfemur 13.7542 -8.48124 -11.8668
ltibia -11.7421
lfoot -7.28696 19.0062
ltoes -13.3011
535
root -0.670655 18.1515 5.62637 1.62945 -2.45477 -2.91356
lowerback 2.89436 1.01028 1.19702
upperback -2.30526 1.42001 0.394482
thorax -3.97789 0.678722 -0.353565
lowerneck -11.4451 -2.93379 -1.27169
upperneck 20.3326 -4.61571 3.6478
head 8.31324 -1.92388 0.942161
rclavicle 1.36789e-014 1.03368e-014
rhumerus -51.8509 -8.44353 -83.8334
rradius 45.9718
rwrist 7.66405
rhand -3.1593 -41.7853
rfingers 7.12502
rthumb 22.5611 -70.4871
lclavicle 1.36789e-014 1.03368e-014
lhumerus -41.9822 1.50471 88.5708
lradius 37.2829
lwrist -3.37536
lhand -6.67446 -23.2278
lfingers 7.12502
lthumb 19.1839 5.84609
rfemur 10.1719 5.15602 17.4282
rtibia -7.98476
rfoot -13.9204 -14.0571
rtoes 3.71717
lfemur 13.7414 -8.50247 -11.8546
ltibia -11.723
lfoot -7.31779 19.0258
ltoes -13.1337
536
root -0.671363 18.1512 5.62777 1.63454 -2.46961 -2.89911
lowerback 2.85482 1.02087 1.19734
upperback -2.32357 1.43349 0.388097
thorax -3.97412 0.685301 -0.360561
lowerneck -11.4088 -2.94095 -1.21171
upperneck 20.3892 -4.62035 3.55614
head 8.32199 -1.93031 0.901582
rclavicle 1.11816e-016 9.74045e-015
rhumerus -51.8178 -8.41086 -83.8341
rradius 45.8753
rwrist 7.63466
rhand -3.24245 -41.7094
rfingers 7.12502
rthumb 22.4813 -70.4209
lclavicle 1.11816e-016 9.74045e-015
lhumerus -42.0814 1.72344 88.4471
lradius 37.0899
lwrist -3.77845
lhand -6.42178 -23.1095
lfingers 7.12502
lthumb 19.4269 5.94008
rfemur 10.1728 5.16951 17.4161
rtibia -7.99745
rfoot -13.8973 -14.0696
rtoes 3.66543
lfemur 13.737 -8.49469 -11.868
ltibia -11.7184
lfoot -7.30435 19.0219
ltoes -13.1658
537
root -0.672332 18.1513 5.62836 1.62706 -2.47573 -2.89949
lowerback 2.83956 1.01344 1.20875
upperback -2.32926 1.42406 0.392187
thorax -3.97134 0.680353 -0.361907
lowerneck -11.4189 -2.94063 -1.22704
upperneck 20.4797 -4.6215 3.55888
head 8.35475 -1.93031 0.904606
rclavicle -9.59136e-015 9.74045e-015
rhumerus -51.7792 -8.35921 -83.8518
rradius 45.8077
rwrist 7.63502
rhand -3.23409 -41.7172
rfingers 7.12502
rthumb 22.4893 -70.4276
lclavicle -9.59136e-015 9.74045e-015
lhumerus -42.1568 1.84419 88.3855
lradius 36.9522
lwrist -3.98006
lhand -6.20772 -23.0364
lfingers 7.12502
lthumb 19.6327 5.99222
rfemur 10.198 5.17511 17.4212
rtibia -8.02385
rfoot -13.8868 -14.0573
rtoes 3.78789
lfemur 13.7478 -8.45181 -11.861
ltibia -11.7177
lfoot -7.29343 18.9858
ltoes -13.2274
538
root -0.673325 18.1504 5.62888 1.60556 -2.47519 -2.92124
lowerback 2.82883 0.995724 1.23564
upperback -2.31503 1.4021 0.414525
thorax -3.95077 0.669195 -0.352234
lowerneck -11.4395 -2.92878 -1.22431
upperneck 20.5229 -4.60291 3.53781
head 8.37197 -1.92253 0.898746
rclavicle 9.2e-015 -1.19271e-015
rhumerus -51.7315 -8.28071 -83.8729
rradius 45.763
rwrist 7.65878
rhand -3.16312 -41.7948
rfingers 7.12502
rthumb 22.5574 -70.497
lclavicle 9.2e-015 -1.19271e-015
lhumerus -42.2102 1.87831 88.3832
lradius 36.8544
lwrist -4.00394
lhand -6.09567 -23.096
lfingers 7.12502
lthumb 19.7404 5.92158
rfemur 10.2488 5.17408 17.4553
rtibia -8.05387
rfoot -13.8652 -14.0595
rtoes 3.7621
lfemur 13.7752 -8.42452 -11.8314
ltibia -11.7161
lfoot -7.34621 18.9456
ltoes -13.1622
